<svg width="26" height="23" viewBox="0 0 26 23" fill="none" xmlns="http://www.w3.org/2000/svg">
<path id="&#60;Compound Path&#62;" d="M25.0267 17.0274C24.7726 17.6626 24.1374 18.6789 22.867 19.8222C21.0884 21.3467 18.2936 22.9982 12.9579 22.9982C11.8145 22.9982 7.49519 22.9982 4.19216 20.4574C0.253928 17.5355 0.126892 13.0891 0.126892 11.5647C0.126892 9.27796 0.635045 6.99124 1.7784 5.21269C2.28656 4.57749 2.66769 4.06934 3.17585 3.56118C3.93808 2.92598 4.3192 2.6719 4.70032 2.41782C6.09775 1.4015 9.01967 0.131104 13.339 0.131104C14.4824 0.131104 18.5476 0.258145 21.9777 2.54486C23.7563 3.68822 24.7726 5.2127 25.1537 5.97493C25.3231 6.22901 25.4501 6.52544 25.5348 6.86421L19.691 7.49941C19.4369 6.99125 18.8017 6.10197 17.5313 5.33974C16.8961 4.83158 15.3717 4.06934 13.339 4.06934C12.7038 4.06934 11.3064 4.06934 9.90894 4.70454C7.11407 5.84789 5.58959 8.51572 5.58959 11.5647C5.58959 13.0891 6.09776 14.7407 6.98704 16.0111C7.11408 16.2651 7.62223 16.7733 8.38447 17.2815C9.14671 18.0437 10.7982 19.06 13.4661 19.06C16.515 19.06 18.2936 17.7896 19.0558 16.7733C19.4369 16.3922 19.691 16.0111 20.1992 14.9947H25.7889C25.5348 16.0111 25.4078 16.5192 25.0267 17.0274Z" fill="#29B357"/>
</svg>
